<?xml version="1.0" encoding="UTF-8"?>
<svg width="23px" height="23px" viewBox="0 0 23 23" version="1.1" xmlns="http://www.w3.org/2000/svg" xmlns:xlink="http://www.w3.org/1999/xlink">
    <!-- Generator: Sketch 52.5 (67469) - http://www.bohemiancoding.com/sketch -->
    <title>r</title>
    <desc>Created with Sketch.</desc>
    <g id="Page-1" stroke="none" stroke-width="1" fill="none" fill-rule="evenodd">
        <g id="r" fill="#000000" fill-rule="nonzero">
            <path d="M8.577275,12.560775 L9.7179,12.560775 L14.49915,19.967025 C14.827275,20.467025 15.5929,21.717025 15.93665,22.2014 C16.1554,22.5764 16.24915,22.5764 16.983525,22.5764 L21.389775,22.5764 C21.9679,22.5764 22.43665,22.5764 22.43665,21.998275 C22.43665,21.748275 22.24915,21.529525 21.9679,21.467025 C20.7804,21.2014 19.2179,19.10765 18.452275,18.0764 C18.233525,17.7639 16.639775,15.654525 14.49915,12.217025 C17.3429,11.7014 20.077275,10.498275 20.077275,6.7014 C20.077275,2.279525 15.389775,0.748275 11.639775,0.748275 L1.62415,0.748275 C1.046025,0.748275 0.546025,0.748275 0.546025,1.310775 C0.546025,1.85765 1.139775,1.85765 1.4054,1.85765 C3.2179,1.85765 3.37415,2.0764 3.37415,3.67015 L3.37415,19.6389 C3.37415,21.23265 3.2179,21.467025 1.4054,21.467025 C1.139775,21.467025 0.546025,21.467025 0.546025,21.998275 C0.546025,22.5764 1.046025,22.5764 1.62415,22.5764 L10.358525,22.5764 C10.93665,22.5764 11.4054,22.5764 11.4054,21.998275 C11.4054,21.467025 10.87415,21.467025 10.514775,21.467025 C8.702275,21.467025 8.577275,21.2014 8.577275,19.6389 L8.577275,12.560775 Z M14.7179,10.998275 C15.62415,9.8264 15.7179,8.1389 15.7179,6.73265 C15.7179,5.2014 15.514775,3.5139 14.49915,2.2014 C15.81165,2.498275 18.9679,3.48265 18.9679,6.7014 C18.9679,8.779525 18.014775,10.404525 14.7179,10.998275 Z M8.577275,3.5764 C8.577275,2.904525 8.577275,1.85765 10.546025,1.85765 C13.264775,1.85765 14.5929,2.967025 14.5929,6.73265 C14.5929,10.842025 13.608525,11.4514 8.577275,11.4514 L8.577275,3.5764 Z M4.233525,21.467025 C4.49915,20.8889 4.49915,19.998275 4.49915,19.7014 L4.49915,3.60765 C4.49915,3.29515 4.49915,2.435775 4.233525,1.85765 L7.87415,1.85765 C7.452275,2.373275 7.452275,2.998275 7.452275,3.48265 L7.452275,19.7014 C7.452275,20.029525 7.452275,20.8889 7.7179,21.467025 L4.233525,21.467025 Z M11.0304,12.560775 C11.24915,12.529525 11.37415,12.498275 11.639775,12.498275 C12.108525,12.498275 12.81165,12.435775 13.296025,12.373275 C13.764775,13.1389 17.2179,18.810775 19.858525,21.467025 L16.764775,21.467025 L11.0304,12.560775 Z" id="Shape"></path>
        </g>
    </g>
</svg>